<?xml version="1.0" encoding="utf-8"?>
<!-- Generator: Adobe Illustrator 25.2.1, SVG Export Plug-In . SVG Version: 6.00 Build 0)  -->
<svg version="1.1" id="svg28566" xmlns="http://www.w3.org/2000/svg" xmlns:xlink="http://www.w3.org/1999/xlink" x="0px" y="0px"
	 viewBox="0 0 224.22 58.68" style="enable-background:new 0 0 224.22 58.68;" xml:space="preserve">
<style type="text/css">
	.st0{fill:#464D59;}
	.st1{opacity:0.1;enable-background:new    ;}
	.st2{opacity:0.1;clip-path:url(#XMLID_2_);enable-background:new    ;}
	.st3{fill:#FFFFFF;}
	.st4{fill:#F7D88B;}
	.st5{fill:#F4CF7A;}
	.st6{fill:#F27281;}
</style>
<g>
	<path class="st0" d="M10.36,39.16c-3.53-1.29-8.47-5.75-7.41-8.65s7.71-3.15,11.24-1.87c3.53,1.29,4.79,4.41,3.74,7.32
		C16.87,38.86,13.9,40.44,10.36,39.16z"/>
	<path class="st1" d="M10.36,39.16c-3.53-1.29-8.47-5.75-7.41-8.65s7.71-3.15,11.24-1.87c3.53,1.29,4.79,4.41,3.74,7.32
		C16.87,38.86,13.9,40.44,10.36,39.16z"/>
	<path class="st1" d="M14.19,28.64c-1.3-0.47-3.02-0.74-4.73-0.74c-0.62,3.88-0.65,7.6-0.12,10.82c0.35,0.17,0.69,0.32,1.02,0.44
		c3.53,1.29,6.51-0.3,7.56-3.2C18.99,33.05,17.73,29.92,14.19,28.64z"/>
	<path class="st0" d="M59.82,39.16c3.53-1.29,8.47-5.75,7.41-8.65c-1.06-2.91-7.71-3.15-11.24-1.87c-3.53,1.29-4.79,4.41-3.74,7.32
		C53.32,38.86,56.29,40.44,59.82,39.16z"/>
	<g>
		<defs>
			<path id="XMLID_5_" d="M59.82,39.16c3.53-1.29,8.47-5.75,7.41-8.65c-1.06-2.91-7.71-3.15-11.24-1.87
				c-3.53,1.29-4.79,4.41-3.74,7.32C53.32,38.86,56.29,40.44,59.82,39.16z"/>
		</defs>
		<use xlink:href="#XMLID_5_"  style="overflow:visible;opacity:0.1;enable-background:new    ;"/>
		<clipPath id="XMLID_2_">
			<use xlink:href="#XMLID_5_"  style="overflow:visible;opacity:0.1;enable-background:new    ;"/>
		</clipPath>
		<path class="st2" d="M63.83,37.15L63.83,37.15l0-9.28h0c3.09,0,2.32,1.38,2.32,3.09v3.09C66.15,35.77,66.92,37.15,63.83,37.15z"/>
	</g>
	<path class="st1" d="M55.99,28.64c1.3-0.47,3.02-0.74,4.73-0.74c0.62,3.88,0.65,7.6,0.12,10.82c-0.35,0.17-0.69,0.32-1.02,0.44
		c-3.53,1.29-6.51-0.3-7.56-3.2C51.2,33.05,52.46,29.92,55.99,28.64z"/>
	<path class="st0" d="M35.09,52.26c11.27,0,20.38-2.27,23.14-11.4c3.63-11.98-3.5-37.73-23.14-37.73S8.32,28.88,11.95,40.86
		C14.72,49.99,23.82,52.26,35.09,52.26z"/>
	<path class="st3" d="M48.98,34.62c-0.69-1.4-0.4-3.08,0.7-4.19c1.88-1.91,3.02-4.55,2.95-7.46c-0.13-5.41-4.53-9.83-9.94-9.98
		c-2.42-0.07-4.66,0.7-6.45,2.05c-0.67,0.51-1.61,0.51-2.29,0c-1.79-1.34-4.03-2.12-6.45-2.05c-5.41,0.15-9.81,4.58-9.94,9.98
		c-0.07,2.91,1.07,5.55,2.95,7.45c1.1,1.11,1.39,2.79,0.7,4.19c-2.04,4.15-3.33,9.04-3.9,13.71c4.34,3.01,10.63,3.93,17.79,3.93
		s13.45-0.92,17.79-3.93C52.3,43.65,51.01,38.77,48.98,34.62z"/>
	<path class="st4" d="M35.09,29.75c1.61,0,3.33-1.46,3.68-3.93c0.42-3-1.65-3.64-3.68-3.64c-2.03,0-4.1,0.64-3.68,3.64
		C31.76,28.3,33.49,29.75,35.09,29.75z"/>
	<path class="st5" d="M35.85,29.65c-2.56-0.96-3.35-5.64-2.24-7.33c-1.42,0.32-2.51,1.24-2.19,3.5c0.35,2.48,2.07,3.93,3.68,3.93
		C35.35,29.75,35.6,29.72,35.85,29.65z"/>
	<g>
		<ellipse class="st6" cx="24.65" cy="23.94" rx="3.45" ry="2.75"/>
		<ellipse class="st6" cx="45.53" cy="23.94" rx="3.45" ry="2.75"/>
	</g>
	<g>
		<path class="st0" d="M28.3,21.9c-0.52,0-0.95-0.42-0.95-0.95c0-0.38-0.31-0.69-0.69-0.69c-0.38,0-0.69,0.31-0.69,0.69
			c0,0.52-0.42,0.95-0.95,0.95s-0.95-0.42-0.95-0.95c0-1.43,1.16-2.59,2.59-2.59s2.59,1.16,2.59,2.59
			C29.25,21.48,28.83,21.9,28.3,21.9z"/>
		<path class="st0" d="M45.16,21.9c-0.52,0-0.95-0.42-0.95-0.95c0-0.38-0.31-0.69-0.69-0.69c-0.38,0-0.69,0.31-0.69,0.69
			c0,0.52-0.42,0.95-0.95,0.95s-0.95-0.42-0.95-0.95c0-1.43,1.16-2.59,2.59-2.59c1.43,0,2.59,1.16,2.59,2.59
			C46.11,21.48,45.69,21.9,45.16,21.9z"/>
	</g>
	<path class="st1" d="M26.4,5.05c-13.01,6.19-17.48,25.8-14.45,35.81c2.77,9.13,11.87,11.4,23.14,11.4c4.49,0,8.64-0.36,12.18-1.37
		C20.37,51.96,20.08,17.38,26.4,5.05z"/>
	<g>
		<path class="st4" d="M30.35,54.38h-4.14c-1.25,0-2.27-1.02-2.27-2.27l0,0c0-1.25,1.02-2.27,2.27-2.27h4.14
			c1.25,0,2.27,1.02,2.27,2.27l0,0C32.62,53.36,31.6,54.38,30.35,54.38z"/>
		<path class="st4" d="M39.84,54.38h4.14c1.25,0,2.27-1.02,2.27-2.27l0,0c0-1.25-1.02-2.27-2.27-2.27h-4.14
			c-1.25,0-2.27,1.02-2.27,2.27l0,0C37.57,53.36,38.58,54.38,39.84,54.38z"/>
	</g>
	<g id="zkSGqH.tif_4_">
		<g>
			<path class="st0" d="M69.92,24.2c0.12,0.16,0.24,0.31,0.36,0.47c0.04,0.05,0.07,0.1,0.1,0.15c0.05,0.11,0.03,0.24-0.05,0.32
				c-0.08,0.08-0.2,0.11-0.31,0.05c-0.13-0.07-0.26-0.15-0.38-0.22c-0.65-0.37-1.35-0.56-2.1-0.56c-0.36,0-0.72,0-1.09,0
				c0,0.03,0,0.06,0,0.09c0,0.2-0.12,0.31-0.31,0.31c-0.09,0-0.17,0-0.26,0c-0.54,0-1.08,0-1.61,0c-0.34,0-0.41-0.06-0.43-0.4
				c-0.01,0-0.01-0.01-0.02-0.01c-0.6,0.01-1.2-0.04-1.8,0.06c-0.6,0.1-1.15,0.34-1.66,0.67c-0.07,0.05-0.18,0.08-0.26,0.07
				c-0.21-0.03-0.3-0.27-0.17-0.45c0.12-0.17,0.25-0.33,0.37-0.49c0.02-0.02,0.03-0.05,0.05-0.07c0.13-0.13,0.26-0.26,0.38-0.38
				c0.08-0.06,0.16-0.13,0.24-0.19c0.7-0.55,1.5-0.87,2.39-0.98c0.16-0.02,0.32-0.03,0.49-0.04c0-0.07-0.01-0.14-0.01-0.21
				c0-0.18,0.11-0.29,0.29-0.29c0.68,0,1.35,0,2.03,0c0.18,0,0.29,0.12,0.29,0.29c0,0.07-0.01,0.14-0.02,0.21
				c0.04,0,0.04,0,0.05,0.01c0.03,0,0.05,0,0.08,0c0.99,0.04,1.88,0.35,2.68,0.94c0.11,0.08,0.22,0.17,0.33,0.25
				C69.66,23.95,69.79,24.08,69.92,24.2z"/>
			<path class="st0" d="M64.22,25.41c0.6,0,1.19,0,1.82,0c-0.01,0.03-0.03,0.06-0.03,0.09c0,2.27,0,11.89,0,14.16
				c0,0.26-0.1,0.36-0.35,0.36c-0.37,0-0.73,0-1.1,0c-0.23,0-0.34-0.11-0.34-0.34c0-2.28,0-11.92,0-14.2
				C64.22,25.46,64.22,25.43,64.22,25.41z"/>
		</g>
	</g>
</g>
<g>
	<path class="st5" d="M98.35,13.66h4.36v24.4h-4.36V13.66z M100.53,26.48h6.14c1.58,0,2.8-0.4,3.66-1.21
		c0.86-0.81,1.29-1.94,1.29-3.41v-0.03c0-1.48-0.43-2.62-1.29-3.42c-0.86-0.8-2.08-1.2-3.66-1.2h-6.14v-3.55h7.22
		c1.65,0,3.09,0.34,4.34,1.01c1.25,0.68,2.22,1.63,2.92,2.85c0.7,1.22,1.05,2.65,1.05,4.29v0.03c0,1.62-0.35,3.05-1.05,4.27
		c-0.7,1.22-1.67,2.18-2.92,2.86c-1.25,0.68-2.69,1.02-4.34,1.02h-7.22V26.48z"/>
	<path class="st5" d="M121.37,37.28c-1.29-0.75-2.28-1.83-2.97-3.21c-0.69-1.39-1.03-3.03-1.03-4.92v-0.02
		c0-1.88,0.35-3.53,1.04-4.93s1.67-2.49,2.93-3.27c1.26-0.78,2.74-1.17,4.46-1.17c1.7,0,3.18,0.38,4.42,1.12
		c1.25,0.75,2.2,1.8,2.87,3.15c0.67,1.35,1.01,2.93,1.01,4.73v1.35h-14.64v-2.81h12.63l-2.03,2.62v-1.62c0-1.17-0.18-2.15-0.54-2.93
		c-0.36-0.78-0.86-1.36-1.49-1.75c-0.63-0.39-1.36-0.58-2.18-0.58c-0.83,0-1.58,0.2-2.22,0.6c-0.65,0.4-1.16,0.99-1.52,1.78
		c-0.37,0.79-0.55,1.75-0.55,2.87v1.62c0,1.09,0.18,2.03,0.55,2.8c0.37,0.77,0.89,1.36,1.56,1.78c0.68,0.41,1.48,0.62,2.42,0.62
		c0.7,0,1.31-0.11,1.84-0.33c0.53-0.22,0.97-0.5,1.31-0.85c0.34-0.35,0.58-0.73,0.72-1.13l0.03-0.12h3.92l-0.03,0.19
		c-0.15,0.69-0.42,1.36-0.81,2.02c-0.39,0.66-0.92,1.25-1.59,1.78c-0.67,0.53-1.45,0.95-2.37,1.26c-0.91,0.31-1.95,0.47-3.11,0.47
		C124.21,38.42,122.66,38.04,121.37,37.28z"/>
	<path class="st5" d="M136.79,20.14h4.19v2.81h0.1c0.46-0.97,1.15-1.74,2.07-2.32c0.92-0.57,2.05-0.86,3.41-0.86
		c1.97,0,3.5,0.6,4.57,1.79c1.08,1.2,1.61,2.83,1.61,4.9v11.6h-4.21V27.31c0-1.27-0.3-2.26-0.9-2.95c-0.6-0.69-1.49-1.04-2.69-1.04
		c-0.8,0-1.5,0.18-2.1,0.55c-0.6,0.37-1.06,0.87-1.39,1.52c-0.33,0.65-0.49,1.41-0.49,2.27v10.4h-4.19V20.14z"/>
	<path class="st5" d="M160.06,43.69c-1.18-0.43-2.12-1.03-2.82-1.78c-0.7-0.75-1.13-1.6-1.3-2.54l-0.03-0.15h4.13l0.07,0.13
		c0.23,0.52,0.69,0.95,1.4,1.29c0.7,0.34,1.6,0.52,2.68,0.52c1.38,0,2.43-0.34,3.16-1.01c0.73-0.68,1.1-1.58,1.1-2.72v-2.59h-0.08
		c-0.33,0.64-0.76,1.2-1.31,1.66c-0.55,0.46-1.18,0.82-1.91,1.08c-0.73,0.26-1.52,0.39-2.38,0.39c-1.5,0-2.8-0.37-3.92-1.1
		c-1.11-0.73-1.97-1.77-2.57-3.12s-0.91-2.95-0.91-4.81v-0.02c0-1.89,0.31-3.52,0.92-4.88c0.61-1.36,1.48-2.41,2.6-3.15
		c1.12-0.74,2.43-1.12,3.94-1.12c0.85,0,1.62,0.14,2.33,0.43c0.71,0.29,1.33,0.68,1.87,1.19c0.54,0.51,0.97,1.1,1.31,1.79h0.1v-3.04
		h4.21v17.42c0,1.35-0.34,2.54-1.03,3.56c-0.69,1.02-1.66,1.81-2.93,2.38c-1.26,0.56-2.76,0.85-4.5,0.85
		C162.62,44.34,161.24,44.12,160.06,43.69z M166.38,34.01c0.65-0.47,1.16-1.13,1.53-1.99c0.37-0.86,0.55-1.86,0.55-3.01V29
		c0-1.16-0.19-2.17-0.56-3.02c-0.37-0.85-0.88-1.51-1.54-1.97c-0.65-0.46-1.41-0.69-2.28-0.69c-0.9,0-1.69,0.23-2.35,0.69
		c-0.67,0.46-1.18,1.12-1.54,1.96c-0.36,0.85-0.54,1.85-0.54,3.03v0.02c0,1.17,0.18,2.18,0.54,3.04c0.36,0.85,0.87,1.51,1.54,1.97
		c0.66,0.46,1.45,0.69,2.35,0.69C164.96,34.71,165.73,34.48,166.38,34.01z"/>
	<path class="st5" d="M178.83,37.61c-0.92-0.54-1.62-1.3-2.11-2.31c-0.48-1-0.73-2.19-0.73-3.57v-11.6h4.19v10.76
		c0,1.27,0.3,2.26,0.9,2.95c0.6,0.69,1.5,1.04,2.71,1.04c0.8,0,1.5-0.18,2.09-0.55c0.59-0.37,1.05-0.88,1.38-1.53
		c0.33-0.65,0.49-1.41,0.49-2.28V20.14h4.21v17.93h-4.21v-2.81h-0.08c-0.46,0.96-1.15,1.72-2.06,2.3c-0.91,0.58-2.05,0.86-3.42,0.86
		C180.87,38.42,179.75,38.15,178.83,37.61z"/>
	<path class="st5" d="M195.97,16.89c-0.45-0.45-0.68-0.99-0.68-1.62c0-0.64,0.22-1.19,0.68-1.63c0.45-0.45,1-0.67,1.66-0.67
		c0.66,0,1.22,0.22,1.67,0.67c0.45,0.45,0.68,0.99,0.68,1.63c0,0.63-0.23,1.17-0.68,1.62c-0.45,0.45-1.01,0.68-1.67,0.68
		C196.98,17.57,196.42,17.34,195.97,16.89z M195.53,20.14h4.21v17.93h-4.21V20.14z"/>
	<path class="st5" d="M203.31,20.14h4.19v2.81h0.1c0.46-0.97,1.15-1.74,2.07-2.32c0.92-0.57,2.05-0.86,3.41-0.86
		c1.97,0,3.5,0.6,4.57,1.79c1.08,1.2,1.61,2.83,1.61,4.9v11.6h-4.21V27.31c0-1.27-0.3-2.26-0.9-2.95c-0.6-0.69-1.49-1.04-2.69-1.04
		c-0.8,0-1.5,0.18-2.1,0.55c-0.6,0.37-1.06,0.87-1.39,1.52c-0.33,0.65-0.49,1.41-0.49,2.27v10.4h-4.19V20.14z"/>
</g>
</svg>
