<svg id="svg28566" xmlns="http://www.w3.org/2000/svg" viewBox="0 0 224.22 58.68"><defs><style>.cls-1{fill:#dd7200;}</style></defs><polygon id="polygon28556" class="cls-1" points="0 51.12 13.47 58.68 26.94 51.12 26.94 36.03 13.47 28.46 0 36.03 0 51.12"/><polygon id="polygon28558" class="cls-1" points="44.53 0 37.41 4 37.4 4.06 37.4 12.05 44.53 16.05 44.59 16.08 51.71 12.09 51.71 4.03 44.53 0"/><polygon id="polygon28560" class="cls-1" points="57.77 36.03 44.3 28.46 30.83 36.03 30.83 51.12 44.3 58.68 57.77 51.12 57.77 36.03"/><polygon id="polygon28562" class="cls-1" points="28.78 2.11 15.33 9.67 15.33 24.76 28.8 32.32 42.27 24.76 42.27 18.75 35.71 15.07 33.94 14.08 33.94 12.05 33.94 5.19 28.78 2.11"/><path class="cls-1" d="M70.69,38V10.32H83a5.87,5.87,0,0,1,4.32,1.82,5.86,5.86,0,0,1,1.81,4.31v3.09A6.18,6.18,0,0,1,83,25.67H76.82V38Zm6.13-15.34h3.09A3.14,3.14,0,0,0,83,19.54V16.45a2.92,2.92,0,0,0-.92-2.15,3,3,0,0,0-2.16-.9H76.82Z" transform="translate(0 0)"/><path class="cls-1" d="M113.68,28.75H101.39v3.08a3.07,3.07,0,0,0,3.08,3.05h3.08c2,0,3-1,3-3.05h3.08Q113,38,107.55,38h-6.16a6.16,6.16,0,0,1-6.14-6.13V22.62a6.2,6.2,0,0,1,6.14-6.17h6.16a5.84,5.84,0,0,1,4.32,1.83,5.92,5.92,0,0,1,1.81,4.34Zm-12.29-3.08h6.16V22.62a3.08,3.08,0,1,0-6.16,0Z" transform="translate(0 0)"/><path class="cls-1" d="M119.81,38V16.45H126v3.09a3.8,3.8,0,0,1,1-2.32,2.9,2.9,0,0,1,2.13-.77h3.08a5.88,5.88,0,0,1,4.33,1.83,6,6,0,0,1,1.8,4.34V38h-6.13V22.62a3.08,3.08,0,1,0-6.16,0V38Z" transform="translate(0 0)"/><path class="cls-1" d="M162.8,16.45V41a6.22,6.22,0,0,1-6.13,6.14h-6.16q-5.43,0-6.13-6.14h3.08q.21,3.06,3,3.06h3.08a3,3,0,0,0,2.17-.9,2.92,2.92,0,0,0,.91-2.16V34.88c-.24,2.06-1.27,3.08-3.08,3.08h-3.08a6.15,6.15,0,0,1-6.13-6.13V22.62a6.18,6.18,0,0,1,6.13-6.17Zm-6.13,3.09h-3.08a3.09,3.09,0,0,0-3.08,3.08v9.21a3.08,3.08,0,0,0,6.16,0Z" transform="translate(0 0)"/><path class="cls-1" d="M187.37,16.45V38h-6.14V34.88C181,36.94,180,38,178.15,38h-3.08a6.15,6.15,0,0,1-6.13-6.13V16.45h6.13V31.83a3.08,3.08,0,0,0,6.16,0V16.45Z" transform="translate(0 0)"/><path class="cls-1" d="M193.5,13.4V10.32h6.13V13.4Zm0,24.56V16.45h6.13V38Z" transform="translate(0 0)"/><path class="cls-1" d="M205.79,38V16.45h6.14v3.09a3.8,3.8,0,0,1,.95-2.32,2.91,2.91,0,0,1,2.13-.77h3.08a5.88,5.88,0,0,1,4.33,1.83,6,6,0,0,1,1.8,4.34V38h-6.13V22.62a3.08,3.08,0,1,0-6.16,0V38Z" transform="translate(0 0)"/></svg>